<?xml version="1.0" standalone="no"?><!DOCTYPE svg PUBLIC "-//W3C//DTD SVG 1.1//EN" "http://www.w3.org/Graphics/SVG/1.1/DTD/svg11.dtd"><svg t="1531709035339" class="icon" style="" viewBox="0 0 1024 1024" version="1.1" xmlns="http://www.w3.org/2000/svg" p-id="5269" xmlns:xlink="http://www.w3.org/1999/xlink" width="48" height="48"><defs><style type="text/css"></style></defs><path d="M824.284911 41.682331l0 54.406121c7.481392 11.44568 11.913331 24.880667 11.913331 39.288818 0 41.46846-35.71748 75.069743-79.798441 75.069743-44.079938 0-79.772858-33.601282-79.772858-75.069743 0-14.408151 4.408403-27.843138 11.914354-39.288818L688.541297 41.682331 580.905858 41.682331l0 54.406121c7.507998 11.44568 11.916401 24.880667 11.916401 39.288818 0 41.46846-35.71748 75.069743-79.798441 75.069743s-79.773881-33.601282-79.773881-75.069743c0-14.408151 4.408403-27.843138 11.914354-39.288818L445.164291 41.682331 337.505315 41.682331l0 54.406121c7.505951 11.44568 11.938913 24.880667 11.938913 39.288818 0 41.46846-35.718503 75.069743-79.799464 75.069743s-79.773881-33.601282-79.773881-75.069743c0-14.408151 4.40738-27.843138 11.888771-39.288818L201.759655 41.682331l-73.993225 0 0 742.925417 18.904559 17.771759 235.568157 221.620493 514.361791 0L896.600937 41.682331 824.284911 41.682331zM832.017012 963.243241 466.749912 963.243241c-95.945189 0-49.697889-213.989699-49.697889-213.989699s-221.841527 50.733475-224.687342-44.953841L192.364681 267.626293l639.652332 0L832.017012 963.243241zM775.795547 458.83208 263.398504 458.83208l0 74.689073 512.397043 0L775.795547 458.83208zM775.795547 333.193615 263.398504 333.193615l0 74.66656 512.397043 0L775.795547 333.193615zM775.795547 584.492034 263.398504 584.492034l0 74.667583 512.397043 0L775.795547 584.492034zM756.398778 179.12054c21.939685 0 39.7227-16.730033 39.7227-37.369096L796.121478 37.369096c0-20.640086-17.783015-37.369096-39.7227-37.369096-21.914102 0-39.697117 16.72901-39.697117 37.369096L716.70166 141.751445C716.70166 162.390507 734.484675 179.12054 756.398778 179.12054zM269.644765 179.12054c21.939685 0 39.7227-16.730033 39.7227-37.369096L309.367465 37.369096c0-20.640086-17.783015-37.369096-39.7227-37.369096-21.915126 0-39.698141 16.72901-39.698141 37.369096L229.946624 141.751445C229.946624 162.390507 247.730663 179.12054 269.644765 179.12054zM513.022795 179.12054c21.938662 0 39.721677-16.730033 39.721677-37.369096L552.744471 37.369096c0-20.640086-17.783015-37.369096-39.721677-37.369096-21.915126 0-39.698141 16.72901-39.698141 37.369096L473.324654 141.751445C473.323631 162.390507 491.107669 179.12054 513.022795 179.12054z" p-id="5270" fill="#dbdbdb"></path></svg>