<?xml version="1.0" standalone="no"?><!DOCTYPE svg PUBLIC "-//W3C//DTD SVG 1.1//EN" "http://www.w3.org/Graphics/SVG/1.1/DTD/svg11.dtd"><svg t="1531709589106" class="icon" style="" viewBox="0 0 1024 1024" version="1.1" xmlns="http://www.w3.org/2000/svg" p-id="9329" xmlns:xlink="http://www.w3.org/1999/xlink" width="48" height="48"><defs><style type="text/css"></style></defs><path d="M397.550933 577.058133l331.076267 83.063467-16.605867 66.218667-331.093333-83.0464 16.622933-66.235734z m492.578134 0.392534l-58.129067 231.765333-107.758933 148.9408-595.933867-149.486933 107.7248-148.923734 58.146133-231.765333a102.4 102.4 0 0 1 124.245334-74.376533l99.310933 24.8832 83.0464-331.0592 198.656 49.8176-83.063467 331.0592 99.328 24.9344a102.4 102.4 0 0 1 74.427734 124.2112z m-66.235734-16.5888a34.133333 34.133333 0 0 0-24.797866-41.4208l-165.5296-41.540267 83.0464-331.0592-66.218667-16.622933-83.0464 331.093333-165.546667-41.540267a34.133333 34.133333 0 0 0-41.403733 24.814934l-58.129067 231.7312-64.631466 89.378133 66.2016 16.605867 64.648533-89.344 66.2016 16.605866-64.631467 89.344 66.218667 16.622934 64.648533-89.344 66.2016 16.605866-64.648533 89.344 66.218667 16.622934 64.648533-89.344 66.2016 16.605866-64.631467 89.361067 66.2016 16.605867 64.631467-89.361067 58.146133-231.765333z" p-id="9330" fill="#e6e6e6"></path></svg>