<?xml version="1.0" standalone="no"?><!DOCTYPE svg PUBLIC "-//W3C//DTD SVG 1.1//EN" "http://www.w3.org/Graphics/SVG/1.1/DTD/svg11.dtd"><svg t="1531743193654" class="icon" style="" viewBox="0 0 1024 1024" version="1.1" xmlns="http://www.w3.org/2000/svg" p-id="1716" xmlns:xlink="http://www.w3.org/1999/xlink" width="48" height="48"><defs><style type="text/css"></style></defs><path d="M98.453 98.453v827.095h829.543V98.453m-336.763 30.092v769.174H128.918V128.545m768.164 769.174H620.465V128.545h276.616v769.174z" fill="#e6e6e6" p-id="1717"></path><path d="M233.771 304.417c0 38.116 30.997 69.015 69.233 69.015s69.233-30.899 69.233-69.015-30.996-69.014-69.233-69.014-69.233 30.899-69.233 69.014M372.236 511.245c0 38.116 30.997 69.014 69.233 69.014 38.236 0 69.233-30.899 69.233-69.014s-30.996-69.014-69.233-69.014c-38.236 0-69.233 30.898-69.233 69.014M692.438 371.922c0 38.116 30.997 69.014 69.233 69.014 38.236 0 69.233-30.899 69.233-69.014 0-38.116-30.997-69.014-69.233-69.014-38.237 0-69.233 30.899-69.233 69.014M692.438 637.196c0 38.116 30.997 69.014 69.233 69.014 38.236 0 69.233-30.899 69.233-69.014 0-38.116-30.997-69.014-69.233-69.014-38.237 0-69.233 30.899-69.233 69.014M233.771 718.073c0 38.116 30.997 69.014 69.233 69.014s69.233-30.899 69.233-69.014c0-38.116-30.996-69.014-69.233-69.014s-69.233 30.898-69.233 69.014" fill="#e6e6e6" p-id="1718"></path></svg>