<?xml version="1.0" standalone="no"?><!DOCTYPE svg PUBLIC "-//W3C//DTD SVG 1.1//EN" "http://www.w3.org/Graphics/SVG/1.1/DTD/svg11.dtd"><svg t="1531743248752" class="icon" style="" viewBox="0 0 1024 1024" version="1.1" xmlns="http://www.w3.org/2000/svg" p-id="3288" xmlns:xlink="http://www.w3.org/1999/xlink" width="48" height="48"><defs><style type="text/css"></style></defs><path d="M519.68 900.096c-215.04 0-390.144-175.104-390.144-390.144s175.104-390.144 390.144-390.144c215.04 0 390.144 175.104 390.144 390.144S734.72 900.096 519.68 900.096zM519.68 181.76c-181.248 0-328.704 147.456-328.704 328.704 0 181.248 147.456 328.704 328.704 328.704s328.704-147.456 328.704-328.704C847.872 329.216 700.416 181.76 519.68 181.76z" p-id="3289" fill="#e6e6e6"></path><path d="M235.52 772.096c-2.56 0-5.632 0-8.192 0-115.2-1.536-190.976-35.84-214.016-97.28C0 640-1.024 582.656 68.096 503.808c10.24-11.776 28.16-12.8 39.936-2.56 11.776 10.24 12.8 28.16 2.56 39.936-39.424 45.056-55.296 85.504-44.544 114.176 13.824 36.864 74.24 59.392 162.304 60.416 99.328 1.536 222.208-23.552 346.112-69.632 264.192-98.816 417.28-251.392 389.12-326.656-11.264-30.72-53.76-51.2-119.296-57.856-15.36-1.536-26.624-15.36-25.088-31.232 1.536-15.36 15.36-26.624 31.232-25.088 112.128 11.776 152.064 57.856 165.888 94.208 23.04 60.928-11.776 137.216-97.792 214.016-79.36 70.656-194.56 136.704-324.608 185.344C466.944 745.984 339.968 772.096 235.52 772.096z" p-id="3290" fill="#e6e6e6"></path><path d="M344.576 631.296c-56.32 0-102.4-46.08-102.4-102.4s46.08-102.4 102.4-102.4 102.4 46.08 102.4 102.4S401.408 631.296 344.576 631.296zM344.576 487.936c-22.528 0-40.96 18.432-40.96 40.96 0 22.528 18.432 40.96 40.96 40.96s40.96-18.432 40.96-40.96C385.536 506.368 367.104 487.936 344.576 487.936z" p-id="3291" fill="#e6e6e6"></path><path d="M582.144 378.88c-40.448 0-73.216-32.768-73.216-73.216s32.768-73.216 73.216-73.216S655.36 265.216 655.36 305.664 622.592 378.88 582.144 378.88zM582.144 293.376c-6.656 0-11.776 5.12-11.776 11.776s5.12 11.776 11.776 11.776c6.656 0 11.776-5.12 11.776-11.776S588.8 293.376 582.144 293.376z" p-id="3292" fill="#e6e6e6"></path><path d="M694.784 484.864m-53.76 0a10.5 10.5 0 1 0 107.52 0 10.5 10.5 0 1 0-107.52 0Z" p-id="3293" fill="#e6e6e6"></path></svg>