<?xml version="1.0" standalone="no"?><!DOCTYPE svg PUBLIC "-//W3C//DTD SVG 1.1//EN" "http://www.w3.org/Graphics/SVG/1.1/DTD/svg11.dtd"><svg t="1531743229947" class="icon" style="" viewBox="0 0 1194 1024" version="1.1" xmlns="http://www.w3.org/2000/svg" p-id="2548" xmlns:xlink="http://www.w3.org/1999/xlink" width="55.96875" height="48"><defs><style type="text/css"></style></defs><path d="M72.817778 256h1019.619555V950.840889H72.817778V256z m91.022222-182.840889c30.151111 0 54.613333 24.519111 54.613333 54.840889 0 30.321778-24.462222 54.840889-54.613333 54.840889a54.727111 54.727111 0 0 1-54.613333-54.840889c0-30.321778 24.462222-54.840889 54.613333-54.840889z m182.044444 0c30.151111 0 54.613333 24.519111 54.613334 54.840889 0 30.321778-24.462222 54.840889-54.613334 54.840889a54.727111 54.727111 0 0 1-54.613333-54.840889c0-30.321778 24.462222-54.840889 54.613333-54.840889z m182.101334 0c30.151111 0 54.613333 24.519111 54.613333 54.840889 0 30.321778-24.462222 54.840889-54.613333 54.840889a54.727111 54.727111 0 0 1-54.613334-54.840889c0-30.321778 24.462222-54.840889 54.613334-54.840889zM109.283556 0C48.810667 0 0 49.095111 0 109.738667V1024h1165.255111V109.738667c0-60.643556-48.924444-109.738667-109.226667-109.738667H109.226667z" fill="#e6e6e6" p-id="2549"></path></svg>