<?xml version="1.0" standalone="no"?><!DOCTYPE svg PUBLIC "-//W3C//DTD SVG 1.1//EN" "http://www.w3.org/Graphics/SVG/1.1/DTD/svg11.dtd"><svg t="1531709454602" class="icon" style="" viewBox="0 0 1024 1024" version="1.1" xmlns="http://www.w3.org/2000/svg" p-id="7106" xmlns:xlink="http://www.w3.org/1999/xlink" width="48" height="48"><defs><style type="text/css"></style></defs><path d="M269.92534266 779.8973683c-65.91965841-12.66289947-118.82355415-29.98226107-157.27789819-51.60187245-19.10601478-10.86954702-33.79564819-22.33650542-43.46925415-34.1619118C59.6251834 682.42766032 54.72863861 670.00484255 54.72863861 657.34417681l0.23896437-94.12420117c50.35009978 36.78494074 111.20013191 63.0766484 182.54674819 78.87623936 99.26417681 19.81509223 188.63923213 21.20644819 268.12516596 4.17406691-5.67038777 29.50879883-8.4140167 48.22509926-4.98029362 73.37223287 4.31923212 31.61593149 13.643325 54.26845181 23.55477893 73.64134724h-8.55359808c-77.7439484 0-179.93376862-0.72582798-245.7350617-13.38761011z m381.58876341 103.95748915c7.28172575-0.29144777 66.45118788 3.39687287 71.54873138 45.69810319 8.23311766 60.17892128-52.93404575 66.71806947-61.32907915 67.20939862-340.24227606 19.93904139-506.09945585-27.08341756-592.43608532-90.37111404C59.74466511 894.68532148 54.84812128 882.26138734 54.84812128 869.60183798L55.08596925 775.47540309c21.90659266 15.19771212 73.61678107 129.2978049 596.42702043 108.37833798zM112.64856085 516.15731734c-19.10824755-10.75006436-33.79676457-22.21702276-43.47037053-33.92294744C59.6251834 470.52844713 54.72863861 458.10674574 54.72863861 445.44496266l0.23896437-94.12420118c22.21255628 15.40876117 48.84261128 29.14476798 79.05713841 40.73121001 30.21340979 11.58644107 65.08439904 21.50012873 103.41814308 29.38373234 76.54912468 15.76720819 160.26272522 23.77029447 248.75450426 23.77029447 88.61014531 0 172.20537957-8.00308627 248.99235223-23.77029447 38.33486139-7.88360361 73.08636798-17.79729128 103.41926043-29.38373234C868.94189287 380.34604777 895.45358255 366.72952266 917.90510319 351.20127978v235.66950766c0 8.38275032-9.51392394 54.42143362-19.67215979 73.70723012-4.71117926 9.24257681-6.12151756 3.65928798-6.43753245 1.75203669-7.5698234-45.66237032-31.31890085-87.24112276-75.3464834-121.60403329-69.86481032-55.65757404-215.57301798-58.49053469-285.11064766 45.42787244-14.68851606 0.47792968-29.85496277 0.71689404-45.02140851 0.71689404h-7.76188819c-69.86146117 0-139.9618867-6.45093191-208.62964053-19.11159765-65.91965841-12.66289947-118.82355415-29.98226107-157.2778982-51.60075606z m1.00722542-211.43356755c-19.09708181-10.86173043-33.77889766-22.31975585-43.44692074-34.13622926C60.66144148 258.89053075 55.76713042 246.47664596 55.76713042 233.82491319v-70.65987032c0-12.65173277 4.77371202-25.06561756 14.44173511-36.76260829 9.66913947-11.69810713 24.23035724-23.15613255 43.44692074-33.89838032 38.43424436-21.60397819 91.30910649-39.03053937 157.19526575-51.68227213C341.8704867 27.69212064 414.67880734 21.36625425 487.01031564 21.8430666c77.46366734 0 150.1536217 6.44534905 216.15926362 19.21656446 66.00564192 12.65173277 118.88050404 30.07829393 157.19526574 51.68227214 19.21768085 10.74224777 33.77889766 22.20027319 43.44692075 33.89726297 9.54742405 11.69810713 14.4417351 24.11087458 14.4417351 36.76260734V234.06387852c0 12.65173277-4.77371202 25.06561756-14.4417351 36.76260733-9.66802309 11.69698979-24.23035724 23.15501617-43.44692075 34.01674564-38.43312798 21.60397819-91.30910649 38.9110567-157.19526574 51.56278947-65.7666766 12.53336649-138.45663191 18.97871554-216.15926362 18.97871649h-7.75853808c-69.7051283 0-139.76870457-6.44534905-208.40072554-19.09819819-65.88504287-12.65173277-118.76102139-29.95881127-157.19526575-51.56278947z m709.89843447 382.87626989c-0.49467926 15.33841086-4.94791085 30.67682266-13.85437308 45.52055425l146.95216372 146.95216372c5.93838575 5.93838575 12.37033532 18.30872107 12.37033532 31.17261926 0 13.85437308-6.92662788 20.78100096-12.36921797 26.22470745l-42.05779852 36.61409203c-4.94679351 5.4425901-12.86389723 9.40114148-21.77036042 9.40114148-3.46387213 0-7.42242446-0.49467926-10.88518021-1.97871702-12.37033532-0.49579564-19.2969632-7.42242446-29.68746416-17.81292542l-0.99047489-0.98935852-121.71793116-167.73428202c-14.8437316 3.957435-29.68746415 3.957435-44.5323131 3.95743501-32.16086043-2.47339724-62.83768309-18.80228394-85.10383914-43.54183628-22.76083532-25.23423256-33.64489915-56.90041373-31.17150191-89.06239149 0-9.72608936 4.57494703-50.87492809 23.96570936-49.22227532 1.83690192 0.15633191 3.86475223 0.17866532 6.92886159 1.50525478 2.71794542 1.17695776 24.41572277 25.82382829 65.0944484 73.94172798 2.47451362 2.47339724 7.91710372 2.47339724 10.39050096 0l45.02699138-38.59392542c0.75486064-0.90225957 0.86875947-2.05465021 0.34281384-3.45828926-0.46341287-1.23614043-1.56778755-2.72241191-3.3120067-4.45881446l-58.62230043-65.71642787c-4.20086681-4.95684383-6.59721447-8.00085255-7.18904298-9.13314351-6.41966553-12.28211904 13.31056053-17.46006128 31.6259818-17.84084171 19.37289543-0.40199649 37.61350085 3.29972361 43.66467001 4.8317783 24.92603521 6.31134957 48.2105834 20.45158755 65.72870999 40.35824617 22.76083532 25.23534894 33.64601553 56.9015301 31.1726183 89.06350787z" p-id="7107" fill="#e6e6e6"></path></svg>