<?xml version="1.0" standalone="no"?><!DOCTYPE svg PUBLIC "-//W3C//DTD SVG 1.1//EN" "http://www.w3.org/Graphics/SVG/1.1/DTD/svg11.dtd"><svg t="1531743292536" class="icon" style="" viewBox="0 0 1024 1024" version="1.1" xmlns="http://www.w3.org/2000/svg" p-id="4224" xmlns:xlink="http://www.w3.org/1999/xlink" width="48" height="48"><defs><style type="text/css"></style></defs><path d="M286 222c16.569 0 30-13.431 30-30s-13.431-30-30-30H156c-16.569 0-30 13.431-30 30v290H96c-16.568 0-30 13.432-30 30s13.432 30 30 30h30v290c0 16.568 13.431 30 30 30h130c16.569 0 30-13.432 30-30s-13.431-30-30-30H186V222h100zM651.142 164.146c-15.386-6.155-32.844 1.329-38.996 16.713l-256 640c-6.153 15.384 1.329 32.843 16.713 38.996a29.903 29.903 0 0 0 11.132 2.153c11.905 0 23.172-7.137 27.864-18.866l256-640c6.153-15.384-1.33-32.843-16.713-38.996zM930 482h-32V192c0-16.569-13.432-30-30-30H738c-16.568 0-30 13.431-30 30s13.432 30 30 30h100v580H738c-16.568 0-30 13.432-30 30s13.432 30 30 30h130c16.568 0 30-13.432 30-30V542h32c16.568 0 30-13.432 30-30s-13.432-30-30-30z" p-id="4225" fill="#e6e6e6"></path></svg>