<?xml version="1.0" standalone="no"?><!DOCTYPE svg PUBLIC "-//W3C//DTD SVG 1.1//EN" "http://www.w3.org/Graphics/SVG/1.1/DTD/svg11.dtd"><svg t="1531709474597" class="icon" style="" viewBox="0 0 1024 1024" version="1.1" xmlns="http://www.w3.org/2000/svg" p-id="7863" xmlns:xlink="http://www.w3.org/1999/xlink" width="48" height="48"><defs><style type="text/css"></style></defs><path d="M511.226 35.508c-263.427 0-476.992 213.565-476.992 476.992 0 94.749 27.661 183.045 75.265 257.248l-53.39 199.267 199.799-53.588c73.804 46.875 161.371 74.069 255.318 74.069 263.43 0 476.992-213.562 476.992-476.994-0.001-263.428-213.563-476.993-476.993-476.993zM511.226 946.143c-82.512 0-162.765-23.271-232.112-67.285l-16.092-10.24-145.61 39.030 33.974-126.662 4.921-18.55-10.306-16.092c-44.746-69.746-68.416-150.599-68.416-233.843 0-239.091 194.546-433.639 433.639-433.639s433.643 194.548 433.643 433.639c0 239.095-194.548 433.642-433.643 433.642z" p-id="7864" fill="#e6e6e6"></path><path d="M771.417 425.762c-47.891 0-86.749 38.859-86.749 86.749s38.858 86.683 86.749 86.683 86.679-38.791 86.679-86.683-38.788-86.749-86.679-86.749zM771.417 555.884c-23.913 0-43.376-19.461-43.376-43.373 0-23.913 19.463-43.373 43.376-43.373s43.373 19.461 43.373 43.373c0 23.913-19.461 43.373-43.373 43.373z" p-id="7865" fill="#e6e6e6"></path><path d="M511.237 425.762c-47.893 0-86.751 38.859-86.751 86.749s38.859 86.683 86.751 86.683c47.891 0 86.683-38.791 86.683-86.683s-38.791-86.749-86.683-86.749zM511.237 555.884c-23.913 0-43.375-19.461-43.375-43.373 0-23.913 19.463-43.373 43.375-43.373 23.913 0 43.373 19.461 43.373 43.373 0 23.913-19.461 43.373-43.373 43.373z" p-id="7866" fill="#e6e6e6"></path><path d="M251.054 425.762c-47.891 0-86.746 38.859-86.746 86.749s38.855 86.683 86.746 86.683 86.751-38.791 86.751-86.683-38.86-86.749-86.751-86.749zM251.054 555.884c-23.913 0-43.373-19.461-43.373-43.373 0-23.913 19.461-43.373 43.373-43.373 23.913 0 43.375 19.461 43.375 43.373 0.001 23.913-19.462 43.373-43.375 43.373z" p-id="7867" fill="#e6e6e6"></path></svg>