<?xml version="1.0" standalone="no"?><!DOCTYPE svg PUBLIC "-//W3C//DTD SVG 1.1//EN" "http://www.w3.org/Graphics/SVG/1.1/DTD/svg11.dtd"><svg t="1531709368529" class="icon" style="" viewBox="0 0 1024 1024" version="1.1" xmlns="http://www.w3.org/2000/svg" p-id="6662" xmlns:xlink="http://www.w3.org/1999/xlink" width="48" height="48"><defs><style type="text/css"></style></defs><path d="M417.175418 321.407973c-54.18754 54.18754-135.468849 54.18754-189.656389 0-54.18754-54.18754-54.18754-135.468849 0-189.656389 54.18754-54.18754 135.468849-54.18754 189.656389 0C471.36657 185.939124 471.36657 267.224046 417.175418 321.407973L417.175418 321.407973zM552.640655 741.375855c0 45.716221-38.946391 79.590658-118.537049 99.903761-79.590658 18.629676-157.479828 18.629676-237.070486 0-79.594271-20.313102-118.537049-54.18754-118.537049-99.903761 0-204.904763 103.295901-325.128851 237.070486-325.128851C449.341142 416.243392 552.640655 536.471093 552.640655 741.375855L552.640655 741.375855zM620.375079 426.405362c-54.191152-54.18754-54.191152-135.468849 0-189.660001 54.18754-54.18754 135.472462-54.18754 189.663614 0 54.180315 54.18754 54.180315 135.472462 0 189.660001C755.847541 480.592902 674.562619 480.592902 620.375079 426.405362L620.375079 426.405362zM708.426219 521.229944c133.785423 0 237.077711 120.234926 237.077711 325.128851 0 38.953616-30.48591 69.432301-89.749016 89.752628-59.259493 20.32394-123.612616 27.097382-196.429831 20.32394-71.122952-6.780667-123.619841-23.708855-157.490665-52.496888 88.051139-35.561476 132.087547-89.752628 132.087547-162.562619 0-69.432301-10.16197-133.778198-30.482297-189.660001C635.616228 531.391914 671.174092 521.229944 708.426219 521.229944z" p-id="6663" fill="#e6e6e6"></path></svg>